<svg width="640" height="480" xmlns="http://www.w3.org/2000/svg" xmlns:svg="http://www.w3.org/2000/svg">
 <!-- Created with SVG-edit - https://github.com/SVG-Edit/svgedit-->

 <g class="layer">
  <title>Layer 1</title>
  <ellipse cx="312" cy="230" fill="#ffff00" id="svg_6" rx="115" ry="110" stroke="#000000" stroke-dasharray="null" stroke-linecap="null" stroke-linejoin="null" stroke-opacity="null"/>
  <path d="m206,186l-70,-113l100,71l-10,-95c0,0 55,72 56,73c1,1 19,-81 19,-81c0,0 30,78 30,78c0,0 42,-69 42,-69c0,0 -1,81 -1,81c0,0 89,-63 89,-63c0,0 -52,96 -52,96c0,0 124,-32 124,-32c0,0 -106,81 -106,81c0,0 161,-7 161,-7c0,0 -168,49 -168,49c0,0 141,45 141,45c0,0 -156,-5 -156,-5c0,0 87,82 87,82c0,0 -127,-51 -127,-51c0,0 47,104 47,104c0,0 -104,-91 -104,-91c0,0 -3,90 -3,90c0,0 -42,-101 -42,-101c0,0 -29,91 -29,91c0,0 -12,-120 -12,-120c0,0 -69,51 -69,51c0,0 42,-88 42,-88c0,0 -107,-6 -107,-6c0,0 112,-36 112,-36c0,0 -135,-76 -135,-76c0,0 141,42 141,42z" fill="#ffff00" fill-opacity="null" id="svg_7" stroke="#000000" stroke-dasharray="null" stroke-linecap="null" stroke-linejoin="null" stroke-opacity="null"/>
  <path d="m201,225l6,-39c0,0 29,-40 29,-40c0,0 46,-24 46,-24c0,0 45,-4 45,-4c0,0 44,12 44,12c0,0 36,32 36,32c0,0 21,50 21,50c0,0 -6,45 -6,45c0,0 -16,37 -16,37c0,0 -41,32 -40,32c1,0 -57,15 -57,14c0,-1 -48,-11 -47,-11c1,0 -41,-28 -41,-29c0,-1 -26,-39 -26,-39c0,0 6,-36 6,-36z" fill="#ffff00" fill-opacity="null" id="svg_8" stroke="#000000" stroke-dasharray="null" stroke-linecap="null" stroke-linejoin="null" stroke-opacity="null"/>
  <ellipse cx="258" cy="200" fill="#ffffff" id="svg_9" rx="24" ry="11" stroke="#000000" stroke-dasharray="null" stroke-linecap="null" stroke-linejoin="null" stroke-opacity="null" transform="matrix(1, 0, 0, 1, 0, 0)"/>
  <ellipse cx="349" cy="203" fill="#ffffff" id="svg_10" rx="24" ry="11" stroke="#000000" stroke-dasharray="null" stroke-linecap="null" stroke-linejoin="null" stroke-opacity="null" transform="matrix(1, 0, 0, 1, 0, 0)"/>
  <ellipse cx="258" cy="198.5" fill="#000000" id="svg_11" rx="7" ry="3.5" stroke="#000000" stroke-dasharray="null" stroke-linecap="null" stroke-linejoin="null" stroke-opacity="null" transform="matrix(1, 0, 0, 1, 0, 0) matrix(0.999096, 0.0425148, -0.0425148, 0.999096, 8.67246, -10.7893)"/>
  <ellipse cx="347.2" cy="201.21" fill="#000000" id="svg_12" rx="7" ry="3.5" stroke="#000000" stroke-dasharray="null" stroke-linecap="null" stroke-linejoin="null" stroke-opacity="null" transform="matrix(1, 0, 0, 1, 0, 0) matrix(0.999096, 0.0425148, -0.0425148, 0.999096, 8.67246, -10.7893)"/>
  <path d="m252,261c-59,-22 116,-1 116,-1c0,0 -57,23 -116,1z" fill="#ffff00" fill-opacity="null" id="svg_13" stroke="#000000" stroke-dasharray="null" stroke-linecap="null" stroke-linejoin="null" stroke-opacity="null"/>
 </g>
</svg>